<?xml version="1.0" encoding="UTF-8"?>
<svg id="Layer_1" data-name="Layer 1" xmlns="http://www.w3.org/2000/svg" viewBox="0 0 512 512">
  <defs>
    <style>
      .cls-1, .cls-2 {
        fill: #111923;
      }

      .cls-3 {
        fill: #f37932;
      }

      .cls-3, .cls-2 {
        fill-rule: evenodd;
      }
    </style>
  </defs>
  <path class="cls-2" d="m256,53.86c18.21,0,32.97,10.38,32.97,34.31s-14.76,43.34-32.97,43.34-32.97-19.4-32.97-43.34c0-23.93,14.76-34.31,32.97-34.31Z"/>
  <path class="cls-2" d="m280.2,238.4c0-18.15,14.72-32.87,32.87-32.87h26.28v-25.95c0-18.55-16.52-29.08-35.32-33.75-12.94-3.21-25.96-5.19-39.06-5.84l12.75,49.03c.44,1.69,0,3.35-1.2,4.61l-19.12,20.02c-.38.4-.86.6-1.42.6s-1.03-.2-1.42-.6l-19.12-20.02c-1.21-1.26-1.64-2.92-1.2-4.61l12.76-49.07c-12.94.59-25.96,2.51-39.07,5.88-18.76,4.82-35.32,15.19-35.32,33.75v25.95h26.29c18.15,0,32.87,14.72,32.87,32.87,0,5.93-1.58,11.74-4.65,16.86h57.71c-3.06-5.11-4.65-10.92-4.65-16.86h0Z"/>
  <path class="cls-3" d="m148.49,271.27h215.02c2.75,0,5,2.25,5,5v14.01c0,2.75-2.25,5-5,5h-46.3v162.87h-122.42v-162.87h-46.3c-2.75,0-5-2.25-5-5v-14.01c0-2.75,2.25-5,5-5h0Z"/>
  <circle class="cls-1" cx="66.51" cy="124.82" r="33.37"/>
  <path class="cls-2" d="m114.7,255.26c-3.12-.01-6.27-.88-9.09-2.68l-33.93-21.9c-7.82-5.02-10.1-15.44-5.07-23.26s15.44-10.1,23.26-5.07l29.74,19.19h79.32c9.32,0,16.87,7.55,16.87,16.87s-7.55,16.87-16.87,16.87l-84.23-.02Z"/>
  <path class="cls-2" d="m92.8,288.97c0,4.33,1.78,8.27,4.64,11.13,2.87,2.86,6.81,4.64,11.13,4.64h8.67c31.41,0,49.18,18.2,61.54,48.67v104.71c-4.26-.22-7.83-3.02-9.05-7.17l-22.88-77.85c-2.6-8.86-7.12-15.78-15.78-15.78h-2.38c0,.07,0,.14,0,.2,0,4.42-3.58,8-8,8h-10v89.61c0,1.65-1.35,3-3,3h-16.18c-1.65,0-3-1.35-3-3v-89.61h-37.65c-11.25,0-21.47-4.6-28.87-12s-12-17.62-12-28.87v-110.78c0-4.42,3.58-8,8-8s8,3.58,8,8v110.78c0,6.83,2.8,13.04,7.31,17.55s10.72,7.31,17.56,7.31h26.04c-6.16-3.23-11.77-7.38-16.65-12.26-12.38-12.38-20.05-29.47-20.05-48.32v-92.99c0-14.44,11.78-26.22,26.22-26.22,10.67,0,19.88,6.27,24.03,15.37-13.72-4.22-29.2,1-37.32,13.64-9.76,15.2-5.3,35.56,9.86,45.35l29.8,19.23v25.62Z"/>
  <circle class="cls-1" cx="445.49" cy="124.82" r="33.37"/>
  <path class="cls-2" d="m397.3,255.26l-84.23.02c-9.32,0-16.87-7.55-16.87-16.87s7.55-16.87,16.87-16.87h79.32l29.74-19.19c7.82-5.02,18.24-2.75,23.26,5.07,5.02,7.82,2.75,18.24-5.07,23.26l-33.93,21.9c-2.82,1.81-5.98,2.67-9.09,2.69h0Z"/>
  <path class="cls-2" d="m419.2,288.97v-25.62l29.8-19.23c15.17-9.79,19.62-30.15,9.86-45.35-8.11-12.64-23.6-17.87-37.32-13.64,4.15-9.1,13.37-15.37,24.03-15.37,14.44,0,26.22,11.78,26.22,26.22v92.99c0,18.85-7.67,35.94-20.05,48.32-4.88,4.88-10.48,9.02-16.64,12.26h26.04c6.83,0,13.04-2.8,17.55-7.31,4.51-4.51,7.31-10.73,7.31-17.55v-110.78c0-4.42,3.58-8,8-8s8,3.58,8,8v110.78c0,11.25-4.6,21.46-12,28.87-7.4,7.4-17.62,12-28.87,12h-37.65v89.61c0,1.65-1.35,3-3,3h-16.18c-1.65,0-3-1.35-3-3v-89.61h-10c-4.42,0-8-3.58-8-8,0-.07,0-.14,0-.2h-2.38c-8.66,0-13.17,6.92-15.78,15.78l-22.88,77.85c-1.22,4.15-4.78,6.95-9.05,7.17v-104.71c12.36-30.48,30.13-48.67,61.54-48.67h8.67c4.33,0,8.27-1.78,11.13-4.64,2.86-2.87,4.64-6.81,4.64-11.13h0Z"/>
</svg>