<?xml version="1.0" encoding="UTF-8"?>
<svg id="Layer_2" data-name="Layer 2" xmlns="http://www.w3.org/2000/svg" viewBox="0 0 512 512">
  <defs>
    <style>
      .cls-1 {
        fill: #fff;
      }

      .cls-2 {
        fill: #111923;
      }

      .cls-3 {
        fill: #f37932;
      }
    </style>
  </defs>
  <path class="cls-2" d="m469.65,341.27c7.44-22.62,11.21-46.23,11.21-70.18,0-31.43-6.39-61.87-18.99-90.46-1.78-4.04.05-8.77,4.09-10.55s8.77.05,10.55,4.09c13.5,30.64,20.35,63.24,20.35,96.91,0,25.65-4.04,50.94-12.01,75.18-1.11,3.37-4.24,5.5-7.6,5.5-.83,0-1.67-.13-2.5-.4-4.19-1.37-6.48-5.89-5.1-10.09h0Z"/>
  <path class="cls-2" d="m34.77,351.77c.83,0,1.68-.13,2.51-.41,4.2-1.38,6.47-5.91,5.09-10.1-7.45-22.58-11.23-46.19-11.23-70.17,0-31.45,6.4-61.88,19.02-90.45,1.79-4.04-.04-8.77-4.09-10.55-4.04-1.78-8.77.04-10.55,4.09-13.52,30.61-20.38,63.21-20.38,96.91,0,25.68,4.05,50.98,12.04,75.19,1.11,3.36,4.24,5.49,7.59,5.49Z"/>
  <path class="cls-2" d="m162.5,66.07c1.07,0,2.17-.22,3.21-.68,28.55-12.53,58.93-18.88,90.3-18.88s61.73,6.35,90.31,18.88c4.05,1.78,8.77-.07,10.54-4.11,1.77-4.05-.07-8.76-4.11-10.54-30.62-13.43-63.16-20.23-96.73-20.23s-66.15,6.81-96.73,20.23c-4.05,1.78-5.89,6.5-4.11,10.54,1.31,3,4.24,4.79,7.32,4.79h0Z"/>
  <path class="cls-2" d="m325.14,484.83c-22.31,7.17-45.57,10.81-69.13,10.81s-46.85-3.64-69.13-10.81c-4.2-1.35-8.71.96-10.07,5.16s.96,8.71,5.16,10.07c23.87,7.68,48.77,11.58,74.03,11.58s50.13-3.9,74.03-11.58c4.21-1.35,6.52-5.86,5.17-10.07-1.34-4.2-5.85-6.51-10.06-5.16Z"/>
  <path class="cls-2" d="m373.92,119.83v27.58c0,4.42,3.58,8,8,8s8-3.58,8-8v-27.58c0-4.42-3.58-8-8-8s-8,3.59-8,8Z"/>
  <path class="cls-2" d="m464.59,119.83c0-4.42-3.58-8-8-8s-8,3.58-8,8v27.58c0,4.42,3.58,8,8,8s8-3.58,8-8v-27.58Z"/>
  <path class="cls-2" d="m386.35,62.14c-4.43-6.43-7.04-14.2-7.04-22.58,0-22.01,17.91-39.92,39.93-39.92s39.96,17.91,39.96,39.92c0,8.38-2.61,16.16-7.05,22.59,21.08,5.31,36.74,24.4,36.74,46.95v38.32c0,4.42-3.58,8-8,8s-8-3.58-8-8v-38.32c0-17.72-14.46-32.26-32.23-32.42h-6.79c-4.53,1.79-9.46,2.78-14.62,2.78s-10.08-.99-14.61-2.78h-6.84c-17.7.16-32.16,14.7-32.16,32.42v38.32c0,4.42-3.58,8-8,8s-8-3.58-8-8v-38.32c-.02-22.56,15.66-41.66,36.71-46.96h0Z"/>
  <path class="cls-1" d="m395.31,39.56c0,13.17,10.73,23.89,23.93,23.89s23.96-10.72,23.96-23.89-10.75-23.92-23.96-23.92-23.93,10.73-23.93,23.92Z"/>
  <path class="cls-2" d="m130.11,111.83c-4.42,0-8,3.58-8,8v27.58c0,4.42,3.58,8,8,8s8-3.58,8-8v-27.58c0-4.41-3.58-8-8-8Z"/>
  <path class="cls-2" d="m47.41,119.83v27.58c0,4.42,3.58,8,8,8s8-3.58,8-8v-27.58c0-4.42-3.58-8-8-8s-8,3.59-8,8Z"/>
  <path class="cls-2" d="m23.11,147.41v-38.32c0-22.56,15.69-41.67,36.75-46.96-4.43-6.42-7.03-14.2-7.03-22.57C52.83,17.55,70.74-.36,92.76-.36s39.93,17.91,39.93,39.92c0,8.38-2.6,16.16-7.04,22.58,21.08,5.3,36.75,24.4,36.75,46.95v38.32c0,4.42-3.58,8-8,8s-8-3.58-8-8v-38.32c0-17.72-14.46-32.26-32.23-32.42h-6.8c-4.53,1.79-9.46,2.78-14.61,2.78s-10.08-.99-14.61-2.78h-6.87c-17.7.16-32.16,14.7-32.16,32.42v38.32c0,4.42-3.58,8-8,8s-8.01-3.58-8.01-8h0Z"/>
  <path class="cls-1" d="m68.83,39.56c0,13.17,10.73,23.89,23.93,23.89s23.93-10.72,23.93-23.89-10.73-23.92-23.93-23.92-23.93,10.73-23.93,23.92Z"/>
  <path class="cls-2" d="m456.59,437.93c-4.42,0-8,3.58-8,8v27.55c0,4.42,3.58,8,8,8s8-3.58,8-8v-27.55c0-4.42-3.58-8-8-8Z"/>
  <path class="cls-2" d="m381.92,437.93c-4.42,0-8,3.58-8,8v27.55c0,4.42,3.58,8,8,8s8-3.58,8-8v-27.55c0-4.42-3.58-8-8-8Z"/>
  <path class="cls-2" d="m488.89,435.18v38.3c0,4.42-3.58,8-8,8s-8-3.58-8-8v-38.3c0-17.74-14.46-32.29-32.22-32.42h-6.81c-4.53,1.79-9.46,2.78-14.61,2.78s-10.08-.99-14.6-2.78h-6.85c-17.71.14-32.16,14.68-32.16,32.42v38.3c0,4.42-3.58,8-8,8s-8-3.58-8-8v-38.3c0-22.58,15.68-41.68,36.73-46.96-4.43-6.43-7.04-14.21-7.04-22.6,0-22,17.91-39.89,39.93-39.89s39.96,17.89,39.96,39.89c0,8.39-2.61,16.17-7.05,22.6,21.05,5.3,36.72,24.39,36.72,46.96h0Z"/>
  <path class="cls-1" d="m419.24,389.54c13.21,0,23.96-10.73,23.96-23.92s-10.75-23.89-23.96-23.89-23.93,10.72-23.93,23.89,10.73,23.92,23.93,23.92h0Z"/>
  <path class="cls-2" d="m55.41,437.93c-4.42,0-8,3.58-8,8v27.55c0,4.42,3.58,8,8,8s8-3.58,8-8v-27.55c0-4.42-3.58-8-8-8Z"/>
  <path class="cls-2" d="m130.11,437.93c-4.42,0-8,3.58-8,8v27.55c0,4.42,3.58,8,8,8s8-3.58,8-8v-27.55c0-4.42-3.58-8-8-8Z"/>
  <path class="cls-2" d="m162.41,435.18v38.3c0,4.42-3.58,8-8,8s-8-3.58-8-8v-38.3c0-17.74-14.45-32.28-32.22-32.42h-6.82c-4.53,1.79-9.45,2.78-14.6,2.78s-10.08-.99-14.6-2.78h-6.88c-17.71.14-32.16,14.68-32.16,32.42v38.3c0,4.42-3.58,8-8,8s-8-3.58-8-8v-38.3c0-22.59,15.69-41.7,36.75-46.97-4.43-6.43-7.03-14.21-7.03-22.59,0-22,17.91-39.89,39.93-39.89s39.93,17.89,39.93,39.89c0,8.38-2.6,16.17-7.04,22.6,21.06,5.29,36.74,24.39,36.74,46.96h0Z"/>
  <path class="cls-1" d="m92.76,389.54c13.19,0,23.93-10.73,23.93-23.92s-10.73-23.89-23.93-23.89-23.93,10.72-23.93,23.89,10.74,23.92,23.93,23.92h0Z"/>
  <path class="cls-3" d="m354.19,351.31c-1.79,0-3.56-.6-5.01-1.76l-34.39-27.58h-88.52c-12.63,0-22.9-10.26-22.9-22.88v-7.19h-6.16l-34.39,27.61c-1.45,1.16-3.22,1.76-5.01,1.76-1.18,0-2.36-.26-3.46-.79-2.77-1.33-4.54-4.13-4.54-7.21v-21.37h-6.02c-12.63,0-22.9-10.26-22.9-22.88v-76.34c0-12.62,10.27-22.88,22.9-22.88h141.94c12.63,0,22.9,10.26,22.9,22.88v7.19h59.58c12.63,0,22.9,10.26,22.9,22.88v76.34c0,12.62-10.27,22.88-22.9,22.88h-6.02v21.34c0,3.08-1.76,5.88-4.54,7.21-1.1.54-2.29.79-3.46.79h0Z"/>
  <path class="cls-1" d="m203.37,275.9v-53.14c0-12.62,10.27-22.88,22.9-22.88h66.36v-7.19c0-3.79-3.1-6.88-6.9-6.88h-141.94c-3.8,0-6.9,3.09-6.9,6.88v76.34c0,3.73,3.16,6.88,6.9,6.88h14.02c4.42,0,8,3.58,8,8v12.69l23.58-18.92c1.42-1.14,3.19-1.76,5.01-1.76h8.97v-.02Z"/>
  <path class="cls-1" d="m354.19,305.98h14.02c3.74,0,6.9-3.15,6.9-6.88v-76.34c0-3.79-3.1-6.88-6.9-6.88h-141.94c-3.8,0-6.9,3.09-6.9,6.88v76.34c0,3.73,3.16,6.88,6.9,6.88h91.33c1.82,0,3.59.62,5,1.76l23.59,18.9v-12.67c0-4.41,3.58-7.99,8-7.99h0Z"/>
  <path class="cls-3" d="m345.93,266.58h-97.35c-4.42,0-8,3.58-8,8s3.58,8,8,8h97.35c4.42,0,8-3.58,8-8s-3.58-8-8-8Z"/>
  <path class="cls-3" d="m248.58,255.28h66.24c4.42,0,8-3.58,8-8s-3.58-8-8-8h-66.24c-4.42,0-8,3.58-8,8s3.58,8,8,8Z"/>
  <circle class="cls-3" cx="345.94" cy="247.28" r="8"/>
</svg>