<?xml version="1.0" encoding="UTF-8"?>
<svg id="Layer_3" data-name="Layer 3" xmlns="http://www.w3.org/2000/svg" viewBox="0 0 512 512">
  <defs>
    <style>
      .cls-1 {
        fill: #111923;
      }

      .cls-2 {
        fill: #f37932;
      }
    </style>
  </defs>
  <path class="cls-1" d="m401.89,241.27c3.73,1.54,8.02.69,10.88-2.16l59.88-59.88c3.9-3.89,3.9-10.21,0-14.11l-59.88-59.88c-2.85-2.85-7.15-3.71-10.88-2.16s-6.16,5.19-6.16,9.22v19.96h-19.96c-28.12,0-55.38,7.55-79.84,21.99v-73.89h19.96c4.04,0,7.68-2.43,9.22-6.16,1.54-3.73.69-8.02-2.16-10.88L263.06,3.42c-3.89-3.9-10.21-3.9-14.11,0l-59.88,59.88c-2.85,2.85-3.71,7.15-2.16,10.88,1.54,3.73,5.19,6.16,9.22,6.16h19.96v73.89c-24.46-14.44-51.73-21.99-79.84-21.99h-19.96v-19.96c0-4.04-2.43-7.68-6.16-9.22-3.73-1.55-8.02-.69-10.88,2.16l-59.88,59.88c-3.9,3.89-3.9,10.21,0,14.11l59.88,59.88c2.85,2.85,7.15,3.71,10.88,2.16,3.73-1.54,6.16-5.19,6.16-9.22v-19.96h19.96c32.02,0,60.97,19.52,73.41,48.47-33.59,12.9-60.94,39.71-74.3,73.4-2.04,5.12.47,10.92,5.6,12.96,5.12,2.04,10.92-.48,12.96-5.6,15.96-40.25,55.55-69.34,102.1-69.34,61.89,0,109.79,50.79,109.79,109.79,0,33.55-15.51,65.13-41.32,85.79-6.56-32.5-35.46-55.85-68.47-55.85s-61.91,23.37-68.47,55.84c-14.88-11.91-26.58-27.56-33.63-45.34-2.03-5.12-7.83-7.63-12.96-5.6-5.12,2.03-7.63,7.83-5.6,12.96,18.98,47.86,65.77,81.94,120.65,81.94,72.83,0,129.75-59.47,129.75-129.75,0-55.57-34.76-102.51-83.39-121.2,12.44-28.95,41.39-48.47,73.41-48.47h19.96v19.96c0,4.04,2.43,7.68,6.16,9.22Zm-195.75,238.3c1-26.19,22.49-47.91,49.86-47.91s48.86,21.73,49.86,47.91c-15.35,7.84-32.47,11.97-49.86,11.97s-34.51-4.13-49.86-11.97Zm169.63-287.45c-40.81,0-77.62,25.36-92.64,62.73-8.87-1.89-17.95-2.85-27.12-2.85s-18.26.96-27.12,2.85c-15.02-37.36-51.83-62.73-92.64-62.73h-29.94c-5.51,0-9.98,4.47-9.98,9.98v5.85l-35.79-35.79,35.79-35.79v5.85c0,5.51,4.47,9.98,9.98,9.98h29.94c30.03,0,59.01,9.92,83.8,28.69,3.02,2.29,7.08,2.67,10.47.98,3.39-1.68,5.54-5.15,5.54-8.94v-102.57c0-5.51-4.47-9.98-9.98-9.98h-5.85l35.79-35.79,35.79,35.79h-5.85c-5.51,0-9.98,4.47-9.98,9.98v102.57c0,3.79,2.14,7.25,5.54,8.94,3.39,1.69,7.45,1.31,10.47-.98,24.79-18.77,53.77-28.69,83.8-28.69h29.94c5.51,0,9.98-4.47,9.98-9.98v-5.85l35.79,35.79-35.79,35.79v-5.85c0-5.51-4.47-9.98-9.98-9.98h-29.94Z"/>
  <path class="cls-2" d="m305.9,361.79c0-27.52-22.39-49.9-49.9-49.9s-49.9,22.39-49.9,49.9,22.39,49.9,49.9,49.9,49.9-22.39,49.9-49.9Zm-49.9,29.94c-16.51,0-29.94-13.43-29.94-29.94s13.43-29.94,29.94-29.94,29.94,13.43,29.94,29.94-13.43,29.94-29.94,29.94Z"/>
  <path class="cls-2" d="m146.21,381.75c0,5.51-4.47,9.98-9.98,9.98s-9.98-4.47-9.98-9.98,4.47-9.98,9.98-9.98,9.98,4.47,9.98,9.98Z"/>
</svg>