<?xml version="1.0" encoding="UTF-8"?>
<svg id="Layer_4" data-name="Layer 4" xmlns="http://www.w3.org/2000/svg" viewBox="0 0 512 512">
  <defs>
    <style>
      .cls-1 {
        fill: #f37932;
      }

      .cls-1, .cls-2 {
        fill-rule: evenodd;
      }

      .cls-2 {
        fill: #111923;
      }
    </style>
  </defs>
  <path class="cls-2" d="m235.16,441.29c0-3.39-.7-6.74-2.05-9.84l21.49-14.72c-3.3-.97-7.41-4.07-12.34-9.31l-18.8,12.88c-11.6-7.19-26.82-3.61-34.01,7.99s-3.61,26.82,7.99,34.01c11.6,7.19,26.82,3.61,34.01-7.99,2.42-3.91,3.7-8.42,3.7-13.02h0Z"/>
  <path class="cls-2" d="m363.77,321.07c2.53,4.48,4.13,9.43,4.7,14.55l25.63-17.56c11.58,7.15,26.77,3.55,33.92-8.03,7.15-11.58,3.55-26.77-8.03-33.92-11.58-7.15-26.77-3.55-33.92,8.03-4.24,6.87-4.85,15.37-1.63,22.77l-20.67,14.15Z"/>
  <path class="cls-2" d="m205.79,160.67c.09,4.91-.29,9.82-1.13,14.67h62.02c-1-4.82-1.38-9.75-1.13-14.67h-59.75Z"/>
  <path class="cls-2" d="m273.35,128.52c2.16-4.4,4.73-8.58,7.7-12.48l-19.46-13.35c5.45-12.53-.29-27.11-12.82-32.56-12.53-5.45-27.11.29-32.56,12.82-5.45,12.53.29,27.11,12.82,32.56,7.45,3.24,16.01,2.62,22.92-1.66l21.41,14.67Z"/>
  <path class="cls-2" d="m442.87,152.85l-25.48.76c.54,4.87.61,9.77.21,14.66l24.04-.71c2.98,13.34,16.2,21.74,29.54,18.77,13.34-2.98,21.74-16.2,18.77-29.54-2.98-13.34-16.2-21.74-29.54-18.77-7.93,1.77-14.49,7.32-17.54,14.85h0Z"/>
  <path class="cls-2" d="m246.73,291.78l-64.62-74.47c-1.03.97-2.09,1.94-3.17,2.85-2.65,2.25-5.45,4.32-8.38,6.19l65.61,75.61c3.19-3.73,6.72-7.14,10.56-10.18Z"/>
  <path class="cls-2" d="m331.69,237.65c-4.88-.49-9.68-1.6-14.28-3.31l-10.6,42.08c4.82.84,9.55,2.13,14.13,3.86l10.75-42.64Z"/>
  <path class="cls-2" d="m90.88,227.72l-14.36,16.76c-13.06-3.94-26.85,3.46-30.79,16.52-3.94,13.06,3.46,26.85,16.52,30.79,2.3.69,4.69,1.05,7.09,1.05,13.68-.02,24.75-11.12,24.73-24.8,0-2.13-.28-4.25-.83-6.31-.87-3.27-2.42-6.32-4.53-8.97l15.97-18.65c-4.81-1.66-9.44-3.81-13.83-6.39h.01Z"/>
  <path class="cls-2" d="m53.34,94.34l17.07,19.93c3.09-3.82,6.55-7.33,10.32-10.48l-15.17-17.71c8.49-10.69,6.7-26.23-3.98-34.71-10.69-8.49-26.23-6.7-34.71,3.98-8.49,10.69-6.7,26.23,3.98,34.71,2.65,2.1,5.7,3.64,8.97,4.52,2.09.56,4.24.84,6.39.84,2.42,0,4.82-.37,7.13-1.08h0Z"/>
  <path class="cls-2" d="m398.1,186.68c13.57-31.15-.68-67.41-31.84-80.98-31.15-13.57-67.41.68-80.98,31.84-6.82,15.66-6.83,33.46,0,49.12.52-10.22,8.04-18.01,20.87-21.45,8.53-2.27,17.27-3.7,26.08-4.25-14.01-5.53-20.88-21.36-15.36-35.37,5.53-14.01,21.36-20.88,35.37-15.36s20.88,21.36,15.36,35.37c-2.8,7.09-8.43,12.68-15.54,15.43,8.51.59,16.94,1.99,25.18,4.18,12.83,3.44,20.36,11.23,20.87,21.46h0Z"/>
  <path class="cls-1" d="m342.23,148.22c6.97,0,12.62-5.64,12.62-12.6,0-6.97-5.64-12.62-12.6-12.62-6.97,0-12.62,5.64-12.62,12.6h0c0,6.97,5.64,12.61,12.6,12.62Z"/>
  <path class="cls-2" d="m322.65,220.64c12.37,4.04,25.7,4.04,38.07,0v-26.44c0-4.05,3.28-7.33,7.33-7.33s7.33,3.28,7.33,7.33v19.39c2.88-1.89,5.59-4.01,8.11-6.35v-19.46c0-4.73-5.47-7.18-10.06-8.41-20.83-5.37-42.68-5.37-63.51,0-4.58,1.22-10.06,3.68-10.06,8.41v19.44c2.53,2.34,5.24,4.47,8.11,6.36v-19.38c0-4.05,3.28-7.33,7.33-7.33s7.33,3.28,7.33,7.33v26.44h0Z"/>
  <path class="cls-2" d="m355.49,351.52c.03-33.98-27.5-61.55-61.48-61.57-33.98-.03-61.55,27.5-61.57,61.48,0,8.46,1.73,16.84,5.11,24.6.51-10.22,8.04-18,20.87-21.44,8.53-2.28,17.26-3.71,26.08-4.26-14-5.53-20.87-21.37-15.33-35.37,5.53-14,21.37-20.87,35.37-15.33,14,5.53,20.87,21.37,15.33,35.37-2.8,7.08-8.43,12.67-15.53,15.41,8.51.59,16.94,1.99,25.19,4.18,12.83,3.44,20.36,11.24,20.86,21.46,3.39-7.73,5.13-16.09,5.13-24.53h-.02Z"/>
  <path class="cls-1" d="m294.49,337.59c6.97,0,12.62-5.64,12.62-12.6,0-6.97-5.64-12.62-12.6-12.62-6.97,0-12.62,5.64-12.62,12.6v.02c.01,6.96,5.65,12.59,12.6,12.6Z"/>
  <path class="cls-2" d="m274.91,410.02c12.37,4.05,25.71,4.05,38.08,0v-26.44c0-4.05,3.28-7.33,7.33-7.33s7.33,3.28,7.33,7.33v19.39c2.88-1.89,5.59-4.01,8.11-6.35v-19.46c0-4.72-5.48-7.17-10.06-8.41-20.82-5.38-42.67-5.38-63.5,0-4.59,1.24-10.06,3.69-10.06,8.41v19.46c2.52,2.34,5.23,4.47,8.11,6.35v-19.39c0-4.05,3.28-7.33,7.33-7.33s7.33,3.28,7.33,7.33v26.44h0Z"/>
  <path class="cls-2" d="m110.59,220.64c12.37,4.04,25.71,4.04,38.08,0v-26.44c0-4.05,3.28-7.33,7.33-7.33s7.33,3.28,7.33,7.33v19.39c2.87-1.89,5.59-4.01,8.11-6.35v-19.46c0-4.73-5.47-7.18-10.06-8.41-20.83-5.37-42.68-5.37-63.5,0-4.59,1.22-10.06,3.68-10.06,8.41v19.44c2.52,2.34,5.24,4.47,8.11,6.36v-19.38c0-4.05,3.28-7.33,7.33-7.33s7.33,3.28,7.33,7.33v26.44Z"/>
  <path class="cls-1" d="m130.18,148.22c6.97,0,12.61-5.65,12.61-12.62s-5.65-12.61-12.62-12.61c-6.96,0-12.61,5.65-12.61,12.61,0,6.97,5.65,12.61,12.62,12.62h0Z"/>
  <path class="cls-2" d="m129.64,100.62c-33.96-.03-61.51,27.47-61.54,61.43,0,8.47,1.73,16.85,5.12,24.62.51-10.22,8.04-18.01,20.86-21.45,8.53-2.27,17.27-3.7,26.09-4.25-14.01-5.53-20.89-21.37-15.36-35.38,5.53-14.01,21.37-20.89,35.38-15.36,14.01,5.53,20.89,21.37,15.36,35.38-2.8,7.09-8.44,12.69-15.55,15.44,8.51.59,16.94,1.99,25.19,4.18,12.83,3.44,20.36,11.23,20.87,21.46,13.56-31.14-.68-67.38-31.82-80.94-7.76-3.38-16.13-5.12-24.59-5.12h0Z"/>
</svg>