<?xml version="1.0" encoding="UTF-8"?>
<svg id="Layer_1" data-name="Layer 1" xmlns="http://www.w3.org/2000/svg" xmlns:xlink="http://www.w3.org/1999/xlink" viewBox="0 0 512 512">
  <defs>
    <style>
      .cls-1 {
        stroke: #111923;
        stroke-linecap: round;
        stroke-linejoin: round;
        stroke-width: 20px;
      }

      .cls-1, .cls-2, .cls-3 {
        fill: none;
      }

      .cls-2 {
        stroke: #f37932;
        stroke-miterlimit: 10;
        stroke-width: 20px;
      }

      .cls-4 {
        clip-path: url(#clippath);
      }
    </style>
    <clipPath id="clippath">
      <rect class="cls-3" x="22.47" y="22.47" width="467.06" height="467.06"/>
    </clipPath>
  </defs>
  <g id="g1263">
    <g id="g1265">
      <g class="cls-4">
        <g id="g1267">
          <g id="g1281">
            <path id="path1283" class="cls-2" d="m283.37,251.21l-25.62-70.4"/>
          </g>
          <g id="g1273">
            <path id="path1275" class="cls-2" d="m239.52,230.89l50.64-139.13c5.17-14.2-2.15-29.91-16.36-35.08-14.2-5.17-29.91,2.15-35.08,16.36l-56.63,155.59"/>
          </g>
          <g id="g1277">
            <path id="path1279" class="cls-2" d="m228.62,100.79l-19.46-53.47c-5.17-14.2-20.87-21.53-35.08-16.36-14.2,5.17-21.53,20.87-16.36,35.08l41.77,114.77"/>
          </g>
          <g id="g1285">
            <path id="path1287" class="cls-1" d="m338.1,283.37c0,15.11-12.25,27.37-27.37,27.37s-27.37-12.25-27.37-27.37v-76.17c0-15.11,12.25-27.37,27.37-27.37s27.37,12.25,27.37,27.37v76.17c0,15.11,12.25,27.37,27.37,27.37s27.37-12.25,27.37-27.37"/>
          </g>
          <g id="g1289">
            <path id="path1291" class="cls-1" d="m283.11,425.76c0-33.21-20-63.14-50.68-75.85l-41.63-17.38c-10.23-4.24-16.89-14.21-16.89-25.28v-23.88h54.73c15.11,0,27.37-12.25,27.37-27.37s-12.25-27.37-27.37-27.37h-54.73c-30.23,0-54.73,24.5-54.73,54.73v62.49c0,32.86,11.59,63.01,30.89,86.59"/>
          </g>
          <g id="g1293">
            <path id="path1295" class="cls-1" d="m169.4,451.8c23.59,19.3,53.74,30.89,86.6,30.89,75.57,0,136.84-61.26,136.84-136.84v-111.29c0-15.11-12.25-27.37-27.37-27.37s-27.37,12.25-27.37,27.37"/>
          </g>
        </g>
      </g>
    </g>
  </g>
</svg>