<?xml version="1.0" encoding="UTF-8"?>
<svg id="Capa_1" data-name="Capa 1" xmlns="http://www.w3.org/2000/svg" viewBox="0 0 512 512">
  <defs>
    <style>
      .cls-1 {
        fill: #111923;
      }

      .cls-2 {
        fill: #f37932;
      }
    </style>
  </defs>
  <path class="cls-1" d="m468.24,234.67c-10.29-100.87-90.04-180.62-190.91-190.91V0h-42.67v43.76c-100.87,10.29-180.62,90.04-190.91,190.91H0v42.67h43.76c10.29,100.87,90.04,180.62,190.91,190.91v43.75h42.67v-43.76c100.87-10.29,180.62-90.04,190.91-190.91h43.75v-42.67h-43.76Zm-43.05,42.67c-9.84,77.22-70.64,138.02-147.86,147.86v-41.19h-42.67v41.2c-77.22-9.84-138.02-70.64-147.86-147.86h41.19v-42.67h-41.19c9.84-77.22,70.64-138.02,147.86-147.86v41.19h42.67v-41.19c77.22,9.84,138.02,70.64,147.86,147.86h-41.19v42.67h41.2Z"/>
  <path class="cls-1" d="m256,149.33c-58.91,0-106.67,47.76-106.67,106.67s47.76,106.67,106.67,106.67,106.67-47.76,106.67-106.67c-.07-58.88-47.79-106.6-106.67-106.67Zm0,170.67c-35.35,0-64-28.65-64-64s28.65-64,64-64,64,28.65,64,64-28.65,64-64,64Z"/>
  <circle class="cls-2" cx="256" cy="256" r="21.33"/>
</svg>