<?xml version="1.0" encoding="UTF-8"?>
<svg id="Layer_1" data-name="Layer 1" xmlns="http://www.w3.org/2000/svg" viewBox="0 0 512 512">
  <defs>
    <style>
      .cls-1 {
        fill: #fff;
      }

      .cls-2 {
        fill: #111923;
      }

      .cls-3 {
        fill: #f37932;
      }
    </style>
  </defs>
  <path class="cls-2" d="m376.38,294.33c52.04-97.41,15.27-218.56-82.14-270.6C216.57-17.77,120.9-3.57,58.63,58.69c-78.03,78.17-77.91,204.8.26,282.83,62.25,62.13,157.78,76.3,235.38,34.92l118.75,118.75c22.85,22.5,59.61,22.21,82.1-.64,22.25-22.6,22.25-58.87,0-81.46l-118.75-118.75Z"/>
  <path class="cls-1" d="m75.6,324.43C6.59,256.05,6.09,144.66,74.48,75.66c68.39-69.01,179.77-69.51,248.78-1.12.38.37.75.75,1.12,1.12,69.01,68.39,69.51,179.77,1.12,248.78-68.39,69.01-179.77,69.51-248.78,1.12-.38-.37-.75-.75-1.12-1.12Z"/>
  <path class="cls-1" d="m478.16,478.21c-13.31,13.28-34.85,13.28-48.16,0l-114.76-114.76c18.65-13.23,34.93-29.51,48.16-48.16l114.76,114.76c13.23,13.33,13.23,34.83,0,48.16h0Z"/>
  <path class="cls-3" d="m296.26,110.69c-44.3,3.33-72.28-8.11-85.51-34.98-2.93-5.95-10.12-8.39-16.07-5.47-2.38,1.17-4.3,3.09-5.47,5.47-13.23,26.87-41.19,38.32-85.5,34.98-6.19-.47-11.72,3.87-12.75,9.99-7.82,46.9-.51,92.48,21.15,131.79,19.4,35.23,48.91,62.8,83.09,77.62,3.05,1.32,6.5,1.32,9.55,0,34.18-14.82,63.69-42.39,83.09-77.62,21.65-39.32,28.96-84.89,21.14-131.79-1.01-6.13-6.54-10.47-12.73-9.99h0Z"/>
  <path class="cls-1" d="m199.99,305.89c-50.32-24.3-96.5-86.3-86.82-170.7,39.36.93,68.46-9.83,86.82-32.09,17.63,21.37,45.15,32.14,82.17,32.14,1.53,0,3.08-.02,4.65-.06,9.68,84.4-36.5,146.39-86.82,170.7h0Z"/>
  <path class="cls-3" d="m251.08,177.32l-47.27,60.26c-2.05,2.61-5.08,4.26-8.38,4.55-.35.03-.71.05-1.06.05-2.95,0-5.79-1.08-7.99-3.05l-36.03-32.16c-4.88-4.49-5.19-12.08-.7-16.96,4.39-4.77,11.78-5.19,16.68-.94l26.49,23.65,39.38-50.2c4.11-5.2,11.66-6.08,16.86-1.97,5.17,4.09,6.08,11.59,2.03,16.79h0Z"/>
</svg>